
      <svg data-logo="logo" xmlns="http://www.w3.org/2000/svg" viewBox="0 0 213 41">
        <g id="logogram" transform="translate(0, 3.5) rotate(0)"><path d="M15.4992 0H36.5808L21.0816 22.9729H0L15.4992 0Z" fill="#6951F2"/><path d="M16.4224 25.102L10.4192 34H32.5008L48 11.0271H31.7024L22.2064 25.102H16.4224Z" fill="#6951F2"/></g>
        <g id="logotype" transform="translate(54, 1)"><path fill="#6951f2" d="M20.18 32.42L20.18 32.42Q17.41 32.42 15.03 31.44Q12.65 30.46 10.88 28.71Q9.12 26.96 8.12 24.63Q7.12 22.30 7.12 19.61L7.12 19.61Q7.12 16.88 8.10 14.57Q9.08 12.26 10.85 10.53Q12.62 8.79 14.98 7.83Q17.34 6.87 20.11 6.87L20.11 6.87Q22.91 6.87 25.27 7.83Q27.63 8.79 29.40 10.53Q31.17 12.26 32.15 14.59Q33.13 16.91 33.13 19.64L33.13 19.64Q33.13 22.34 32.15 24.67Q31.17 26.99 29.40 28.73Q27.63 30.46 25.29 31.44Q22.94 32.42 20.18 32.42ZM34.39 30.77L31.20 33.96L19.65 22.41L22.84 19.23L34.39 30.77ZM20.11 27.41L20.11 27.41Q22.35 27.41 23.99 26.43Q25.64 25.45 26.56 23.69Q27.49 21.92 27.49 19.61L27.49 19.61Q27.49 17.86 26.97 16.44Q26.44 15.02 25.46 13.99Q24.48 12.96 23.13 12.42Q21.79 11.87 20.11 11.87L20.11 11.87Q17.90 11.87 16.26 12.84Q14.61 13.80 13.68 15.53Q12.76 17.27 12.76 19.61L12.76 19.61Q12.76 21.36 13.28 22.80Q13.80 24.23 14.79 25.26Q15.77 26.29 17.11 26.86Q18.46 27.41 20.11 27.41ZM43.42 32.38L43.42 32.38Q41.07 32.38 39.27 31.42Q37.47 30.46 36.45 28.76Q35.44 27.06 35.44 24.86L35.44 24.86L35.44 14.99L40.79 14.99L40.79 24.79Q40.79 25.66 41.09 26.29Q41.39 26.93 41.98 27.27Q42.58 27.63 43.42 27.63L43.42 27.63Q44.61 27.63 45.31 26.87Q46.01 26.12 46.01 24.79L46.01 24.79L46.01 14.99L51.36 14.99L51.36 24.82Q51.36 27.06 50.35 28.76Q49.33 30.46 47.55 31.42Q45.76 32.38 43.42 32.38ZM62.42 32.38L62.42 32.38Q59.66 32.38 57.50 31.25Q55.35 30.11 54.13 28.08Q52.90 26.05 52.90 23.49L52.90 23.49Q52.90 20.94 54.11 18.93Q55.32 16.91 57.38 15.76Q59.45 14.60 62.04 14.60L62.04 14.60Q64.56 14.60 66.48 15.69Q68.41 16.77 69.51 18.70Q70.61 20.63 70.61 23.11L70.61 23.11Q70.61 23.56 70.56 24.07Q70.50 24.58 70.37 25.24L70.37 25.24L55.70 25.28L55.70 21.60L68.09 21.57L65.78 23.11Q65.75 21.64 65.33 20.68Q64.91 19.71 64.08 19.21Q63.26 18.70 62.07 18.70L62.07 18.70Q60.81 18.70 59.88 19.28Q58.96 19.85 58.45 20.91Q57.94 21.95 57.94 23.46L57.94 23.46Q57.94 24.96 58.48 26.03Q59.03 27.10 60.02 27.68Q61.02 28.25 62.39 28.25L62.39 28.25Q63.65 28.25 64.66 27.82Q65.68 27.38 66.45 26.50L66.45 26.50L69.39 29.45Q68.13 30.91 66.34 31.65Q64.56 32.38 62.42 32.38ZM78.69 32.42L78.69 32.42Q77.19 32.42 75.74 32.03Q74.28 31.65 73.04 30.93Q71.80 30.21 70.92 29.27L70.92 29.27L73.97 26.19Q74.81 27.10 75.97 27.61Q77.12 28.11 78.48 28.11L78.48 28.11Q79.43 28.11 79.94 27.84Q80.44 27.55 80.44 27.06L80.44 27.06Q80.44 26.43 79.83 26.10Q79.22 25.77 78.28 25.51Q77.33 25.24 76.28 24.93Q75.23 24.61 74.28 24.05Q73.34 23.49 72.75 22.50Q72.15 21.50 72.15 19.96L72.15 19.96Q72.15 18.31 72.99 17.11Q73.83 15.90 75.37 15.20Q76.91 14.50 78.97 14.50L78.97 14.50Q81.14 14.50 82.98 15.25Q84.82 16.00 85.97 17.47L85.97 17.47L82.93 20.55Q82.13 19.61 81.13 19.23Q80.13 18.84 79.19 18.84L79.19 18.84Q78.28 18.84 77.82 19.10Q77.36 19.36 77.36 19.85L77.36 19.85Q77.36 20.38 77.96 20.70Q78.56 21.01 79.50 21.25Q80.44 21.50 81.50 21.85Q82.55 22.20 83.49 22.80Q84.44 23.39 85.03 24.39Q85.63 25.38 85.63 26.99L85.63 26.99Q85.63 29.48 83.75 30.95Q81.88 32.42 78.69 32.42ZM95.60 32L90.25 32L90.25 7.95L95.60 7.95L95.60 32ZM99.45 19.54L86.39 19.54L86.39 14.99L99.45 14.99L99.45 19.54ZM110.89 32.35L110.89 32.35Q109.18 32.35 107.75 31.68Q106.31 31.02 105.40 29.85Q104.49 28.68 104.35 27.17L104.35 27.17L104.35 19.99Q104.49 18.49 105.40 17.27Q106.31 16.04 107.75 15.34Q109.18 14.64 110.89 14.64L110.89 14.64Q113.31 14.64 115.18 15.79Q117.06 16.95 118.12 18.95Q119.19 20.94 119.19 23.49L119.19 23.49Q119.19 26.05 118.12 28.04Q117.06 30.04 115.18 31.20Q113.31 32.35 110.89 32.35ZM106.38 39.17L101.09 39.17L101.09 14.99L106.45 14.99L106.45 19.36L105.58 23.49L106.38 27.63L106.38 39.17ZM109.91 27.52L109.91 27.52Q111.07 27.52 111.93 26.99Q112.78 26.47 113.28 25.56Q113.77 24.65 113.77 23.49L113.77 23.49Q113.77 22.30 113.28 21.39Q112.78 20.48 111.93 19.98Q111.07 19.47 109.95 19.47L109.95 19.47Q108.83 19.47 107.97 19.98Q107.11 20.48 106.63 21.39Q106.14 22.30 106.14 23.49L106.14 23.49Q106.14 24.65 106.61 25.56Q107.08 26.47 107.95 26.99Q108.83 27.52 109.91 27.52ZM128.32 32.35L128.32 32.35Q125.98 32.35 124.14 31.20Q122.30 30.04 121.24 28.04Q120.17 26.05 120.17 23.49L120.17 23.49Q120.17 20.94 121.24 18.95Q122.30 16.95 124.14 15.79Q125.98 14.64 128.32 14.64L128.32 14.64Q130.04 14.64 131.42 15.30Q132.81 15.97 133.68 17.14Q134.56 18.31 134.66 19.82L134.66 19.82L134.66 27.17Q134.56 28.68 133.70 29.85Q132.84 31.02 131.44 31.68Q130.04 32.35 128.32 32.35ZM129.41 27.52L129.41 27.52Q131.13 27.52 132.18 26.38Q133.22 25.24 133.22 23.49L133.22 23.49Q133.22 22.30 132.75 21.39Q132.28 20.48 131.42 19.98Q130.56 19.47 129.44 19.47L129.44 19.47Q128.32 19.47 127.47 19.98Q126.61 20.48 126.10 21.39Q125.59 22.30 125.59 23.49L125.59 23.49Q125.59 24.65 126.08 25.56Q126.58 26.47 127.45 26.99Q128.32 27.52 129.41 27.52ZM138.26 32L133.01 32L133.01 27.41L133.82 23.28L133.01 19.16L133.01 14.99L138.26 14.99L138.26 32ZM150.73 32.07L146.60 32.07L139.59 14.99L145.37 14.99L149.82 28.54L147.68 28.54L152.23 14.99L158.01 14.99L150.73 32.07ZM147.72 39.17L142.22 39.17L147.33 28.15L150.73 32.07L147.72 39.17Z"/></g>
        
      </svg>
    